<svg xmlns="http://www.w3.org/2000/svg" viewBox="0 0 64 64"><defs><style>.cls-1{fill:#e1e4ed}.cls-3{fill:#cdd2e1}.cls-8{fill:#393045}</style></defs><g id="_05-contact" data-name="05-contact"><path class="cls-1" d="M50 55v4a4 4 0 0 1-4 4H18a4 4 0 0 1-4-4v-4zM50 5v4H14V5a4 4 0 0 1 4-4h28a4 4 0 0 1 4 4z"/><path style="fill:#ade1fa" d="M14 9h36v46H14z"/><path class="cls-3" d="M20 59v-4h-6v4a4 4 0 0 0 4 4h6a4 4 0 0 1-4-4zM24 1h-6a4 4 0 0 0-4 4v4h6V5a4 4 0 0 1 4-4z"/><path style="fill:#8ed8f8" d="M14 9h6v46h-6z"/><path style="fill:#d4effc" d="M46 9h4v46h-4z"/><rect x="20" y="17" width="26" height="30" rx="2" ry="2" style="fill:#5ce0bf"/><path class="cls-1" d="M41.57 35.85a1.467 1.467 0 0 1 0 2.07l-.82.83-3.63-3.63.82-.83a1.467 1.467 0 0 1 2.07 0zM31.71 25.99a1.467 1.467 0 0 1 0 2.07l-.82.83-3.63-3.63.82-.83a1.467 1.467 0 0 1 2.07 0z"/><path d="m40.75 38.75-.31.3a3.226 3.226 0 0 1-2.28.95 3.131 3.131 0 0 1-1.41-.32 22.812 22.812 0 0 1-10.43-10.43 3.131 3.131 0 0 1-.32-1.41 3.226 3.226 0 0 1 .95-2.28l.31-.3 3.63 3.63-.74.73a22.8 22.8 0 0 0 6.23 6.23l.74-.73z" style="fill:#f26973"/><path class="cls-8" d="M46 0H18a5.006 5.006 0 0 0-5 5v54a5.006 5.006 0 0 0 5 5h28a5.006 5.006 0 0 0 5-5V5a5.006 5.006 0 0 0-5-5zM18 2h28a3 3 0 0 1 3 3v3H15V5a3 3 0 0 1 3-3zm31 8v44H15V10zm-3 52H18a3 3 0 0 1-3-3v-3h34v3a3 3 0 0 1-3 3z"/><path class="cls-8" d="M28 58h8v2h-8zM28 4h8v2h-8zM17 41v2h2v2a3 3 0 0 0 3 3h22a3 3 0 0 0 3-3V19a3 3 0 0 0-3-3H22a3 3 0 0 0-3 3v2h-2v2h2v3h-2v2h2v3h-2v2h2v3h-2v2h2v3zm4-3h2v-2h-2v-3h2v-2h-2v-3h2v-2h-2v-3h2v-2h-2v-2a1 1 0 0 1 1-1h22a1 1 0 0 1 1 1v26a1 1 0 0 1-1 1H22a1 1 0 0 1-1-1v-2h2v-2h-2z"/><path class="cls-8" d="M36.3 40.575a4.115 4.115 0 0 0 1.86.425 4.187 4.187 0 0 0 2.976-1.232l1.141-1.141a2.467 2.467 0 0 0 0-3.484l-1.56-1.56a2.523 2.523 0 0 0-3.488 0l-.958.967a21.768 21.768 0 0 1-4.818-4.815l.139-.137.009-.009.816-.825a2.466 2.466 0 0 0 0-3.485l-1.56-1.56a2.468 2.468 0 0 0-3.488 0l-1.126 1.126A4.2 4.2 0 0 0 25 27.84a4.1 4.1 0 0 0 .424 1.852A23.758 23.758 0 0 0 36.3 40.575zm2.672-5.712A.461.461 0 0 1 39.3 35l1.56 1.56a.471.471 0 0 1 0 .66l-.114.114-2.216-2.216.117-.118a.463.463 0 0 1 .329-.137zm-3.15 1.817a1 1 0 0 0 1.26-.118l.033-.033 2.148 2.148a2.26 2.26 0 0 1-2.071.106 21.783 21.783 0 0 1-9.978-9.983 2.126 2.126 0 0 1-.214-.96 2.194 2.194 0 0 1 .311-1.115l2.161 2.16-.024.024a1 1 0 0 0-.128 1.269 23.767 23.767 0 0 0 6.502 6.502zM29.115 25a.463.463 0 0 1 .328.136L31 26.7a.46.46 0 0 1 .135.327.467.467 0 0 1-.139.332l-.114.114-2.216-2.216.118-.118a.465.465 0 0 1 .331-.139z"/></g></svg>