<?xml version="1.0" encoding="utf-8"?>
<!-- Generator: Adobe Illustrator 27.5.0, SVG Export Plug-In . SVG Version: 6.00 Build 0)  -->
<svg version="1.1" xmlns="http://www.w3.org/2000/svg" xmlns:xlink="http://www.w3.org/1999/xlink" x="0px" y="0px"
	 viewBox="0 0 500 500" style="enable-background:new 0 0 500 500;" xml:space="preserve">
<g id="BACKGROUND">
</g>
<g id="OBJECTS">
	<g>
		<g>
			<path style="fill:#AAE0FE;" d="M426.832,146.563c-6.639,3.227-11.674,8.94-16.532,14.499c-2.681,3.068-6.477,6.447-10.288,5.005
				c-2.374-0.898-3.719-3.429-4.358-5.885c-0.639-2.456-0.797-5.056-1.821-7.379c-2.995-6.794-12.709-8.45-19.176-4.802
				c-6.467,3.648-10.054,10.913-11.902,18.104c-1.849,7.191-2.349,14.705-4.613,21.777c-0.898,2.806-2.308,5.775-5.014,6.941
				c-3.579,1.541-7.662-0.791-10.361-3.601c-2.699-2.81-4.934-6.288-8.464-7.938c-4.664-2.179-10.474-0.385-14.15,3.219
				c-3.676,3.604-5.557,8.661-6.676,13.686c-4.331,19.445,8.641,47.397,22.626,61.584l111.476-113.502
				C442.202,143.215,433.472,143.336,426.832,146.563z"/>
			<path style="fill:#77CCFE;" d="M449.661,168.985c-3.107,6.696-8.729,11.833-14.199,16.79c-3.019,2.736-6.329,6.592-4.818,10.376
				c0.941,2.357,3.495,3.656,5.962,4.251c2.467,0.595,5.07,0.706,7.41,1.688c6.847,2.873,8.678,12.555,5.146,19.086
				c-3.531,6.531-10.73,10.249-17.887,12.227c-7.157,1.978-14.661,2.614-21.69,5.004c-2.789,0.949-5.733,2.412-6.849,5.138
				c-1.477,3.606,0.929,7.646,3.787,10.295c2.858,2.648,6.376,4.82,8.089,8.32c2.263,4.624,0.574,10.465-2.964,14.205
				c-3.538,3.74-8.56,5.712-13.564,6.921c-19.363,4.68-47.545-7.786-61.981-21.513l111.476-113.502
				C452.733,153.558,452.769,162.288,449.661,168.985z"/>
			<path style="fill:#D8F2FE;" d="M336.104,261.774c0.575,0.546,1.178,1.089,1.795,1.631l10.481-11.133l51.311,15.548
				l-48.898-18.111l34.566-36.717l42.102,5.759l-39.648-8.365l28.574-30.353l-29.833,29.116l-9.078-39.491l6.516,41.991
				l-36.088,35.221l-18.988-48.564l16.47,51.022l-10.943,10.68C334.993,260.615,335.547,261.209,336.104,261.774z"/>
		</g>
		<g>
			<path style="fill:#E0422D;" d="M358.316,267.848c7.294-8.997,16.075-17.005,26.526-21.997c10.028-4.79,21.284-6.646,32.398-6.562
				c10.543,0.08,21.527,2.058,29.899,8.467c8.372,6.409,13.31,18.11,9.422,27.91c-2.689,6.777-9.085,11.596-16.026,13.826
				c-6.941,2.23-14.411,2.17-21.668,1.474c-7.257-0.695-14.466-2.003-21.754-2.194c-25.179-0.66-49.946,12.877-64.196,33.646
				C337.603,296.85,351.492,276.265,358.316,267.848z"/>
			<path style="fill:#FF5B42;" d="M457.814,266.497c0.282,3.098-0.084,6.219-1.254,9.168c-2.689,6.777-9.085,11.596-16.026,13.826
				c-6.941,2.23-14.411,2.17-21.668,1.474c-7.257-0.695-14.466-2.003-21.754-2.194c-25.179-0.66-49.946,12.877-64.196,33.646
				C367.232,230.32,457.813,266.497,457.814,266.497z"/>
		</g>
		<g>
			<path style="fill:#003672;" d="M319.968,366.759l-8.318,18.223c-0.731,1.602-0.025,3.493,1.577,4.225
				c1.602,0.731,3.494,0.025,4.225-1.577l8.318-18.222L319.968,366.759z"/>
			<path style="fill:#FFBB45;" d="M377.009,249.475l-14.983,3.159l-31.472,68.947c-8.004,17.534-13.708,36.03-16.969,55.027l0,0
				l4.463,2.037l4.463,2.037l0,0c12.216-14.91,22.453-31.336,30.456-48.87l31.472-68.947L377.009,249.475z"/>
			<polygon style="fill:#FF9A30;" points="362.026,252.634 356.021,265.789 378.433,276.02 384.439,262.864 381.061,256.777 
				368.838,251.197 			"/>
			<path style="fill:#FFBB45;" d="M409.918,177.379c-7.476-3.413-16.303-0.118-19.716,7.358l-32.234,70.617l27.073,12.358
				l32.234-70.617C420.689,189.619,417.395,180.792,409.918,177.379z"/>
			<path style="fill:#FFE187;" d="M400.4,184.067l-1.049-0.479c-1.723-0.787-3.757-0.027-4.544,1.696l-28.847,63.197
				c-0.787,1.723-0.027,3.758,1.696,4.544l1.049,0.479c1.723,0.787,3.758,0.027,4.544-1.696l28.847-63.197
				C402.882,186.888,402.122,184.854,400.4,184.067z"/>
			<path style="fill:#FFE187;" d="M362.103,270.228c-1.542-0.704-3.363-0.024-4.067,1.518l-28.302,62.001
				c-0.704,1.542-0.024,3.363,1.518,4.067c1.542,0.704,3.363,0.024,4.067-1.518l28.302-62.001
				C364.324,272.752,363.645,270.931,362.103,270.228z"/>
			<path style="fill:#003672;" d="M419.783,212.08l-34.809-15.889l3.463-7.586l28.314,12.924c3.587,1.637,5.167,5.872,3.53,9.459
				L419.783,212.08z"/>
			<path style="fill:#003672;" d="M415.172,209.975l-29.888,65.476c-0.581,1.273-0.02,2.777,1.253,3.358
				c1.273,0.581,2.777,0.02,3.358-1.253l29.888-65.476L415.172,209.975z"/>
		</g>
		<g>
			<path style="fill:#E0422D;" d="M151.74,280.579c-5.534-10.196-12.714-19.69-22.09-26.521c-8.997-6.555-19.741-10.444-30.7-12.398
				c-10.396-1.853-21.575-1.917-30.993,2.86c-9.418,4.777-16.424,15.394-14.391,25.757c1.406,7.166,6.822,13.083,13.248,16.551
				c6.426,3.468,13.793,4.777,21.067,5.421c7.274,0.645,14.611,0.678,21.823,1.825c24.915,3.963,46.824,21.83,57.051,44.892
				C166.822,312.932,156.917,290.117,151.74,280.579z"/>
			<path style="fill:#FF5B42;" d="M54.01,261.02c-0.845,2.999-1.056,6.139-0.444,9.258c1.406,7.166,6.822,13.083,13.248,16.551
				c6.426,3.468,13.793,4.777,21.067,5.422c7.274,0.645,14.611,0.678,21.823,1.825c24.915,3.963,46.824,21.83,57.051,44.892
				C149.836,241.99,54.011,261.02,54.01,261.02z"/>
		</g>
		<g>
			<path style="fill:#FF9A30;" d="M293.588,164.794c4.262-11.138,10.296-21.783,18.928-30.01c8.283-7.895,18.706-13.31,29.61-16.782
				c10.344-3.293,21.727-4.868,31.97-1.273c10.243,3.596,18.817,13.469,18.145,24.304c-0.465,7.492-5.184,14.254-11.264,18.656
				c-6.08,4.402-13.41,6.731-20.736,8.371c-7.325,1.64-14.798,2.665-21.992,4.808c-24.854,7.404-44.766,28.572-52.072,53.455
				C282.589,199.801,289.601,175.213,293.588,164.794z"/>
			<path style="fill:#FFBB45;" d="M390.537,131.658c1.266,2.942,1.906,6.113,1.704,9.374c-0.465,7.492-5.184,14.254-11.264,18.656
				c-6.08,4.402-13.41,6.731-20.736,8.371c-7.325,1.64-14.798,2.665-21.992,4.808c-24.854,7.404-44.766,28.572-52.072,53.455
				C290.315,125.213,390.536,131.658,390.537,131.658z"/>
		</g>
		<g>
			<path style="fill:#FF9A30;" d="M142.339,294.909c-10.948-5.096-22.836-8.586-34.911-8.487
				c-11.587,0.095-22.983,3.502-33.358,8.661c-9.843,4.894-19.231,11.769-24.146,21.602c-4.915,9.833-4.193,23.054,3.93,30.46
				c5.617,5.121,13.814,6.713,21.338,5.63c7.524-1.083,14.495-4.555,20.978-8.524c6.483-3.969,12.639-8.49,19.381-12
				c23.292-12.129,52.688-10.766,75.535,2.181C175.006,312.617,152.581,299.677,142.339,294.909z"/>
			<path style="fill:#FFBB45;" d="M48.487,339.128c1.152,3.031,2.922,5.789,5.366,8.017c5.617,5.121,13.814,6.713,21.338,5.63
				c7.524-1.083,14.495-4.555,20.978-8.524c6.483-3.969,12.639-8.49,19.381-12c23.292-12.129,52.688-10.766,75.535,2.181
				C116.829,263.819,48.488,339.127,48.487,339.128z"/>
		</g>
		<g>
			<path style="fill:#FF9A30;" d="M145.374,175.798c-4.227-8.913-7.148-18.604-7.137-28.468c0.01-9.466,2.725-18.794,6.879-27.3
				c3.94-8.069,9.501-15.778,17.504-19.851c8.003-4.073,18.807-3.561,24.905,3.031c4.216,4.558,5.564,11.245,4.724,17.397
				c-0.84,6.152-3.635,11.868-6.84,17.186c-3.204,5.319-6.861,10.374-9.689,15.902c-9.771,19.098-8.485,43.103,2.225,61.69
				C160.031,202.378,149.329,184.135,145.374,175.798z"/>
			<path style="fill:#FFBB45;" d="M180.944,98.873c2.483,0.923,4.746,2.353,6.581,4.337c4.216,4.558,5.565,11.245,4.724,17.397
				c-0.84,6.152-3.635,11.868-6.84,17.186c-3.204,5.319-6.861,10.374-9.689,15.902c-9.771,19.098-8.485,43.103,2.225,61.69
				C119.828,155.141,180.943,98.873,180.944,98.873z"/>
		</g>
		<g>
			<path style="fill:#FF9A30;" d="M353.584,297.436c9.849-4.425,20.52-7.403,31.315-7.169c10.358,0.224,20.506,3.406,29.72,8.143
				c8.742,4.494,17.052,10.753,21.329,19.602c4.277,8.85,3.473,20.662-3.878,27.186c-5.083,4.511-12.431,5.836-19.145,4.778
				c-6.714-1.058-12.905-4.246-18.654-7.872c-5.748-3.626-11.199-7.742-17.184-10.961c-20.679-11.123-46.978-10.256-67.559,1.046
				C324.167,312.877,344.371,301.576,353.584,297.436z"/>
			<path style="fill:#FFBB45;" d="M436.964,338.094c-1.066,2.696-2.682,5.141-4.894,7.104c-5.083,4.511-12.431,5.836-19.145,4.778
				c-6.714-1.058-12.905-4.246-18.654-7.872c-5.748-3.626-11.199-7.742-17.184-10.961c-20.679-11.122-46.978-10.256-67.559,1.046
				C376.764,269.945,436.964,338.093,436.964,338.094z"/>
		</g>
		<g>
			<path style="fill:#FF5B42;" d="M180.344,118.983c-0.168,5.994,2.056,11.766,4.236,17.352c1.203,3.083,2.211,7.086-0.258,9.289
				c-1.539,1.373-3.866,1.391-5.875,0.929c-2.009-0.462-3.941-1.325-5.998-1.459c-6.018-0.393-10.859,5.981-10.659,12.009
				c0.2,6.028,4.085,11.339,8.571,15.371c4.485,4.032,9.71,7.214,13.953,11.499c1.684,1.701,3.293,3.831,3.116,6.218
				c-0.234,3.157-3.446,5.222-6.484,6.111s-6.382,1.193-8.896,3.116c-3.321,2.542-4.211,7.4-2.994,11.401
				c1.216,4.001,4.152,7.255,7.351,9.948c12.38,10.421,37.384,11.573,52.854,6.827l-39.896-122.913
				C183.703,106.655,180.512,112.989,180.344,118.983z"/>
			<path style="fill:#E0422D;" d="M205.066,110.959c3.657,4.753,5.246,10.73,6.762,16.532c0.837,3.202,2.372,7.034,5.665,7.367
				c2.051,0.207,3.946-1.145,5.301-2.699c1.355-1.554,2.412-3.387,3.998-4.704c4.64-3.853,12.301-1.536,15.68,3.46
				c3.378,4.996,3.353,11.577,2.09,17.475c-1.263,5.897-3.623,11.541-4.54,17.502c-0.364,2.365-0.415,5.035,1.129,6.863
				c2.043,2.418,5.856,2.202,8.837,1.138c2.981-1.064,5.866-2.783,9.03-2.702c4.18,0.107,7.754,3.516,9.119,7.469
				c1.366,3.953,0.9,8.31-0.108,12.369c-3.9,15.705-23.461,31.322-38.769,36.566l-39.896-122.913
				C195.108,102.953,201.41,106.206,205.066,110.959z"/>
			<path style="fill:#FFA599;" d="M229.261,227.594c0.609-0.209,1.227-0.44,1.848-0.68l-4.084-11.73l30.466-31.12l-31.406,28.421
				L212.618,173.8l19.957-28.163l-20.913,25.417l-11.133-31.979l9.77,32.421l-31.853-8.29l32.692,11.074l11.818,39.219l-42.11-4.559
				l42.935,7.295l3.584,11.892C228.01,227.959,228.645,227.783,229.261,227.594z"/>
		</g>
		<g>
			<path style="fill:#FFBB45;" d="M47.717,155.351c1.657,5.353,5.364,9.788,8.976,14.072c1.993,2.365,4.091,5.602,2.571,8.295
				c-0.947,1.678-3,2.395-4.917,2.592c-1.917,0.197-3.885,0.016-5.746,0.517c-5.442,1.465-7.803,8.563-5.809,13.835
				c1.993,5.272,7.031,8.799,12.213,11.014c5.183,2.215,10.763,3.455,15.808,5.967c2.002,0.997,4.067,2.396,4.63,4.561
				c0.745,2.863-1.475,5.657-3.894,7.359c-2.419,1.702-5.286,2.978-6.93,5.437c-2.172,3.249-1.494,7.814,0.787,10.987
				c2.281,3.173,5.859,5.166,9.5,6.584c14.091,5.487,36.556-1.028,48.809-9.888l-72.33-96.701
				C46.973,143.434,46.06,149.998,47.717,155.351z"/>
			<path style="fill:#FF9A30;" d="M67.167,140.803c4.667,3.102,7.874,7.911,10.963,12.586c1.705,2.58,4.218,5.507,7.231,4.809
				c1.877-0.435,3.146-2.201,3.876-3.984c0.73-1.783,1.113-3.723,2.119-5.366c2.943-4.806,10.418-5.066,14.912-1.665
				c4.494,3.401,6.455,9.23,7.115,14.827c0.66,5.597,0.274,11.301,1.259,16.85c0.391,2.202,1.15,4.579,3.067,5.73
				c2.536,1.523,5.844,0.183,8.16-1.656c2.316-1.84,4.35-4.229,7.173-5.111c3.73-1.165,7.918,0.774,10.317,3.858
				c2.399,3.085,3.3,7.08,3.632,10.973c1.283,15.067-11.313,34.776-23.274,44.028l-72.33-96.701
				C55.946,136.723,62.5,137.701,67.167,140.803z"/>
			<path style="fill:#FFE1AD;" d="M123.716,236.683c0.476-0.368,0.953-0.759,1.43-1.159l-7.147-9.145l17.571-36.708l-19.216,34.604
				l-23.57-30.16l9.166-30.926l-10.839,28.785l-19.485-24.932l18.412,25.734l-30.674,2.266l32.255-0.056l22.273,31.13l-38.622,8.658
				l40.177-6.485l6.754,9.439C122.719,237.383,123.229,237.035,123.716,236.683z"/>
		</g>
		<g>
			<g>
				<g>
					<path style="fill:#AAE0FE;" d="M145.36,172.349l-14.057-71.202l-15.965,3.152l-15.965,3.152l14.057,71.202l-30.496,62.6
						c-5.734,11.77,4.47,25.022,17.315,22.486l44.819-8.848l44.819-8.848c12.845-2.536,17.247-18.671,7.471-27.379L145.36,172.349z"
						/>
					<path style="fill:#AAE0FE;" d="M130.613,97.651l-31.93,6.304c-1.931,0.381-3.187,2.256-2.806,4.186
						c0.381,1.931,2.255,3.187,4.186,2.806l31.93-6.304c1.931-0.381,3.187-2.255,2.806-4.186
						C134.418,98.526,132.544,97.27,130.613,97.651z"/>
				</g>
			</g>
			<path style="fill:#FF9A30;" d="M193.855,232.418c0.756-2.772-0.04-5.457-2.185-7.367l-17.658-15.728
				c-11.145,6.49-24.059,9.975-36.959,9.645c-8.872-0.227-17.685-2.149-26.548-1.7c-2.275,0.115-4.525,0.392-6.756,0.785
				l-13.126,26.944c-1.258,2.583-0.974,5.37,0.779,7.646c1.753,2.276,4.373,3.262,7.191,2.706l89.638-17.697
				C191.049,237.096,193.098,235.188,193.855,232.418z"/>
			<path style="fill:#FFFFFF;" d="M111.833,113.225c-2.8,0.553-4.621,3.27-4.068,6.07l10.606,53.722
				c0.553,2.8,3.27,4.621,6.07,4.068c2.8-0.553,4.621-3.27,4.068-6.07l-10.606-53.722
				C117.351,114.493,114.633,112.672,111.833,113.225z"/>
			
				<ellipse transform="matrix(0.2298 -0.9732 0.9732 0.2298 -8.1537 156.1671)" style="fill:#AAE0FE;" cx="94.586" cy="83.235" rx="9.244" ry="9.244"/>
			<path style="fill:#AAE0FE;" d="M118.556,91.235c0,2.13-1.727,3.857-3.857,3.857c-2.13,0-3.857-1.727-3.857-3.857
				c0-2.13,1.727-3.857,3.857-3.857C116.829,87.379,118.556,89.105,118.556,91.235z"/>
		</g>
		<g>
			
				<rect x="369.409" y="269.475" transform="matrix(-0.7965 -0.6046 0.6046 -0.7965 492.2273 822.0416)" style="fill:#E0422D;" width="30.076" height="117.427"/>
			<path style="fill:#FFE5B2;" d="M431.926,290.515l11.623-15.312c2.134-2.811,1.585-6.821-1.226-8.955l-13.775-10.456
				c-2.811-2.134-6.821-1.585-8.955,1.226L407.97,272.33L431.926,290.515z"/>
			
				<rect x="406.607" y="276.38" transform="matrix(-0.7965 -0.6046 0.6046 -0.7965 588.6808 756.501)" style="fill:#6593C7;" width="30.076" height="5.614"/>
			
				<rect x="377.444" y="269.475" transform="matrix(-0.7965 -0.6046 0.6046 -0.7965 492.2291 822.0411)" style="fill:#FF9A30;" width="14.007" height="117.427"/>
			<polygon style="fill:#FFE5B2;" points="323.15,408.938 360.925,384.047 348.947,374.954 336.969,365.862 			"/>
			<polygon style="fill:#003672;" points="323.15,408.938 333.083,402.392 326.784,397.61 			"/>
		</g>
		<g>
			<path style="fill:#003672;" d="M240.12,135.006l-10.98,58.305l0.015,0.003c-1.62,10.348,19.674,22.957,47.838,28.261
				c28.165,5.304,52.586,1.303,54.841-8.925l0.015,0.003l10.98-58.305L240.12,135.006z"/>
			<path style="fill:#002854;" d="M282.489,192.396c4.568,0.86,9.037,1.475,13.329,1.858c5.006,0.447,8.521,5.128,7.591,10.067
				l-3.689,19.59c17.549,0.181,30.502-3.946,32.115-11.261l0.015,0.003l6.41-34.039l4.57-24.266L240.12,135.006l-5.485,29.126
				l0.015,0.003C233.031,174.483,254.324,187.092,282.489,192.396z"/>
			<path style="fill:#003672;" d="M291.801,114.519l-96.684,7.177c-6.305,0.468-7.91,8.989-2.207,11.718l87.451,41.853
				c3.218,1.54,6.783,2.211,10.341,1.947l96.684-7.177c6.305-0.468,7.91-8.989,2.207-11.718l-87.451-41.853
				C298.923,114.926,295.358,114.255,291.801,114.519z"/>
			<path style="fill:#FFBB45;" d="M337.173,238.478c-4.663-0.878-9.917,6.23-11.733,15.877c-0.305,1.619,3.228,3.644,7.892,4.522
				c4.663,0.878,8.691,0.277,8.996-1.342C344.144,247.888,341.836,239.356,337.173,238.478z"/>
			<path style="fill:#003672;" d="M342.056,239.877c0.517-2.745-1.289-5.39-4.035-5.907c-2.745-0.517-5.39,1.289-5.907,4.035
				c-0.517,2.745,1.289,5.39,4.035,5.907C338.895,244.428,341.539,242.622,342.056,239.877z"/>
			<g>
				<path style="fill:#FFBB45;" d="M337.086,238.941c-1.506-0.283-2.497-1.734-2.213-3.24l11.55-61.333L290.5,145.581
					c-1.363-0.702-1.899-2.375-1.198-3.737c0.702-1.363,2.377-1.896,3.737-1.197l57.763,29.733c1.092,0.562,1.684,1.774,1.457,2.981
					l-11.933,63.367C340.042,238.233,338.591,239.224,337.086,238.941z"/>
			</g>
		</g>
		<g>
			<path style="fill:#003672;" d="M341.868,226.174l-97.969,4.348c-0.248,0.011-0.496,0.011-0.744,0l-97.969-4.348h-0.965
				c-4.634,0-8.391,3.757-8.391,8.391v101.498c0,4.394,3.389,8.044,7.771,8.368c20.241,1.501,74.76,5.521,99.926,7.162
				c25.166-1.641,79.686-5.661,99.926-7.162c4.382-0.325,7.771-3.975,7.771-8.368V234.565c0-4.634-3.757-8.391-8.391-8.391H341.868z
				"/>
			<g>
				<path style="fill:#FAB45A;" d="M148.322,214.286l-6.795,18.594l-0.821,101.769l7.616-10.374
					C148.322,324.275,169.362,221.002,148.322,214.286z"/>
				<g>
					<path style="fill:#FAB45A;" d="M148.322,324.275l-7.616,10.374l102.821,10.554v-9.479
						C243.527,335.723,187.927,302.272,148.322,324.275z"/>
					<path style="fill:#FAB45A;" d="M338.732,324.275l7.616,10.374l-102.821,10.554v-9.479
						C243.527,335.723,299.126,302.272,338.732,324.275z"/>
				</g>
				<path style="fill:#FFEDCC;" d="M243.527,335.723V224.508c0,0-51.03-34.755-95.205-10.222v109.989
					C148.322,324.275,183.357,309.146,243.527,335.723z"/>
				<path style="fill:#FAB45A;" d="M338.732,214.286l6.795,18.594l0.821,101.769l-7.616-10.374
					C338.732,324.275,317.691,221.002,338.732,214.286z"/>
				<path style="fill:#FFEDCC;" d="M243.527,335.723V224.508c0,0,51.03-34.755,95.205-10.222v109.989
					C338.732,324.275,303.696,309.146,243.527,335.723z"/>
				<polygon style="fill:#FAB45A;" points="243.527,237.217 247.573,335.723 243.527,336.609 				"/>
				<g>
					<g>
						<g>
							<g>
								<path style="fill:#6593C7;" d="M233.412,232.879c-0.141,0-0.285-0.038-0.417-0.119
									c-21.862-13.344-48.521-17.224-73.14-10.645c-0.462,0.122-0.924-0.185-1.036-0.687c-0.112-0.502,0.169-1.008,0.629-1.131
									c25.035-6.69,52.148-2.743,74.384,10.829c0.413,0.252,0.561,0.822,0.33,1.273
									C234.004,232.706,233.713,232.879,233.412,232.879z"/>
							</g>
							<g>
								<path style="fill:#6593C7;" d="M233.412,243.756c-0.141,0-0.285-0.038-0.417-0.119
									c-21.862-13.344-48.521-17.225-73.14-10.646c-0.462,0.123-0.924-0.185-1.036-0.687c-0.112-0.502,0.169-1.008,0.629-1.131
									c25.035-6.691,52.147-2.743,74.384,10.83c0.413,0.252,0.561,0.822,0.33,1.273
									C234.004,243.583,233.713,243.756,233.412,243.756z"/>
							</g>
							<g>
								<path style="fill:#6593C7;" d="M233.412,254.633c-0.141,0-0.285-0.038-0.417-0.119
									c-21.862-13.345-48.521-17.225-73.14-10.645c-0.462,0.123-0.924-0.185-1.036-0.687c-0.112-0.502,0.169-1.008,0.629-1.131
									c25.035-6.691,52.147-2.742,74.384,10.829c0.413,0.252,0.561,0.822,0.33,1.273
									C234.004,254.46,233.713,254.633,233.412,254.633z"/>
							</g>
							<g>
								<path style="fill:#6593C7;" d="M233.412,265.51c-0.141,0-0.285-0.038-0.417-0.119
									c-21.862-13.344-48.521-17.225-73.14-10.645c-0.462,0.122-0.924-0.185-1.036-0.687c-0.112-0.502,0.169-1.008,0.629-1.131
									c25.035-6.69,52.148-2.743,74.384,10.829c0.413,0.252,0.561,0.822,0.33,1.273
									C234.004,265.337,233.713,265.509,233.412,265.51z"/>
							</g>
							<g>
								<path style="fill:#6593C7;" d="M233.412,276.387c-0.141,0-0.285-0.038-0.417-0.119
									c-21.862-13.344-48.521-17.225-73.14-10.646c-0.462,0.122-0.924-0.185-1.036-0.686c-0.112-0.502,0.169-1.008,0.629-1.131
									c25.035-6.691,52.147-2.743,74.384,10.83c0.413,0.252,0.561,0.822,0.33,1.273
									C234.004,276.214,233.713,276.386,233.412,276.387z"/>
							</g>
							<g>
								<g>
									<path style="fill:#6593C7;" d="M233.412,287.263c-0.141,0-0.285-0.038-0.417-0.119
										c-10.681-6.52-23.014-10.935-35.666-12.77c-0.469-0.068-0.799-0.538-0.737-1.051c0.062-0.513,0.493-0.871,0.962-0.804
										c12.865,1.865,25.409,6.357,36.277,12.991c0.413,0.252,0.561,0.822,0.33,1.273
										C234.004,287.091,233.713,287.263,233.412,287.263z"/>
								</g>
								<g>
									<path style="fill:#6593C7;" d="M233.412,298.14c-0.141,0-0.285-0.038-0.417-0.119c-10.945-6.681-23.59-11.14-36.568-12.896
										c-0.469-0.063-0.803-0.531-0.745-1.043c0.058-0.513,0.484-0.877,0.956-0.813c13.196,1.785,26.057,6.322,37.194,13.119
										c0.413,0.252,0.561,0.822,0.33,1.273C234.004,297.968,233.713,298.14,233.412,298.14z"/>
								</g>
								<g>
									<path style="fill:#6593C7;" d="M233.412,309.017c-0.141,0-0.285-0.038-0.417-0.119
										c-11.122-6.789-23.975-11.275-37.171-12.976c-0.47-0.06-0.806-0.525-0.75-1.039c0.055-0.513,0.481-0.885,0.951-0.819
										c13.416,1.728,26.489,6.293,37.806,13.2c0.413,0.252,0.561,0.822,0.33,1.273
										C234.004,308.844,233.713,309.017,233.412,309.017z"/>
								</g>
								<g>
									<path style="fill:#6593C7;" d="M233.412,319.893c-0.141,0-0.285-0.038-0.417-0.119
										c-11.122-6.789-23.975-11.275-37.171-12.976c-0.47-0.06-0.806-0.525-0.75-1.039c0.055-0.513,0.481-0.888,0.951-0.819
										c13.416,1.728,26.489,6.293,37.806,13.2c0.413,0.252,0.561,0.822,0.33,1.273
										C234.004,319.721,233.713,319.893,233.412,319.893z"/>
								</g>
							</g>
						</g>
						<g>
							<g>
								<g>
									<path style="fill:#6593C7;" d="M327.403,222.142c-0.067,0-0.136-0.009-0.204-0.027
										c-13.264-3.544-27.556-4.058-41.332-1.484c-0.465,0.087-0.909-0.255-0.989-0.765c-0.08-0.509,0.234-0.993,0.7-1.08
										c14.004-2.617,28.538-2.094,42.028,1.511c0.46,0.123,0.741,0.629,0.629,1.131
										C328.139,221.856,327.789,222.142,327.403,222.142z"/>
								</g>
								<g>
									<path style="fill:#6593C7;" d="M327.403,233.019c-0.067,0-0.136-0.009-0.204-0.027c-13.298-3.554-27.625-4.06-41.433-1.465
										c-0.464,0.091-0.909-0.254-0.99-0.763c-0.08-0.509,0.233-0.993,0.699-1.081c14.037-2.639,28.605-2.123,42.131,1.491
										c0.46,0.123,0.741,0.629,0.629,1.131C328.139,232.732,327.789,233.019,327.403,233.019z"/>
								</g>
								<g>
									<path style="fill:#6593C7;" d="M327.403,243.895c-0.067,0-0.136-0.009-0.204-0.027
										c-13.347-3.567-27.724-4.064-41.577-1.438c-0.461,0.091-0.91-0.253-0.991-0.762c-0.081-0.509,0.231-0.994,0.698-1.082
										c14.083-2.669,28.703-2.163,42.277,1.464c0.46,0.123,0.741,0.629,0.629,1.131
										C328.139,243.609,327.789,243.895,327.403,243.895z"/>
								</g>
								<g>
									<path style="fill:#6593C7;" d="M327.403,254.772c-0.067,0-0.136-0.009-0.204-0.027c-13.34-3.565-27.711-4.063-41.559-1.441
										c-0.465,0.09-0.91-0.253-0.991-0.762c-0.081-0.509,0.232-0.994,0.698-1.082c14.079-2.665,28.693-2.158,42.259,1.467
										c0.46,0.123,0.741,0.629,0.629,1.131C328.139,254.486,327.789,254.772,327.403,254.772z"/>
								</g>
							</g>
							<g>
								<path style="fill:#6593C7;" d="M253.641,276.387c-0.3,0-0.592-0.173-0.749-0.479c-0.231-0.451-0.083-1.021,0.33-1.273
									c22.236-13.572,49.348-17.52,74.384-10.83c0.46,0.123,0.741,0.629,0.629,1.131c-0.112,0.502-0.576,0.808-1.036,0.686
									c-24.62-6.578-51.278-2.699-73.14,10.646C253.926,276.348,253.783,276.387,253.641,276.387z"/>
							</g>
							<g>
								<path style="fill:#6593C7;" d="M253.641,287.657c-0.3,0-0.592-0.172-0.749-0.479c-0.231-0.451-0.083-1.021,0.33-1.273
									c22.236-13.573,49.348-17.52,74.384-10.83c0.46,0.123,0.741,0.629,0.629,1.131c-0.112,0.502-0.576,0.81-1.036,0.686
									c-24.62-6.579-51.278-2.699-73.14,10.646C253.926,287.618,253.783,287.657,253.641,287.657z"/>
							</g>
							<g>
								<path style="fill:#6593C7;" d="M253.641,298.534c-0.3,0-0.592-0.172-0.749-0.479c-0.231-0.451-0.083-1.021,0.33-1.273
									c22.236-13.573,49.348-17.52,74.384-10.83c0.46,0.123,0.741,0.629,0.629,1.131c-0.112,0.501-0.576,0.81-1.036,0.687
									c-24.62-6.579-51.278-2.698-73.14,10.646C253.926,298.495,253.783,298.534,253.641,298.534z"/>
							</g>
							<g>
								<path style="fill:#6593C7;" d="M253.641,309.41c-0.3,0-0.592-0.172-0.749-0.479c-0.231-0.451-0.083-1.021,0.33-1.273
									c22.236-13.571,49.347-17.52,74.384-10.829c0.46,0.123,0.741,0.629,0.629,1.131c-0.112,0.501-0.576,0.809-1.036,0.687
									c-24.62-6.58-51.278-2.699-73.14,10.645C253.926,309.372,253.783,309.41,253.641,309.41z"/>
							</g>
							<g>
								<path style="fill:#6593C7;" d="M253.641,320.287c-0.3,0-0.592-0.172-0.749-0.479c-0.231-0.451-0.083-1.021,0.33-1.273
									c22.236-13.572,49.347-17.52,74.384-10.829c0.46,0.123,0.741,0.629,0.629,1.131c-0.112,0.501-0.576,0.808-1.036,0.687
									c-24.62-6.579-51.278-2.7-73.14,10.645C253.926,320.249,253.783,320.287,253.641,320.287z"/>
							</g>
						</g>
						<path style="fill:#6593C7;" d="M159.652,272.306v35.776c0,0,13.329-2.799,31.179-2.211v-36.372
							C190.831,269.498,178.597,268.251,159.652,272.306z"/>
						<path style="fill:#6593C7;" d="M253.641,230.514v35.19c0,0,9.127-7.095,22.922-10.605v-33.893
							C276.563,221.206,265.754,222.772,253.641,230.514z"/>
					</g>
				</g>
			</g>
		</g>
		<g>
			
				<rect x="143.947" y="351.203" transform="matrix(0.8494 -0.5277 0.5277 0.8494 -167.5411 132.2745)" style="fill:#6593C7;" width="8.179" height="17.09"/>
			
				<ellipse transform="matrix(0.0078 -1 1 0.0078 -197.6578 441.0383)" style="fill:#003672;" cx="123.422" cy="320.124" rx="42.285" ry="42.285"/>
			
				<ellipse transform="matrix(0.7071 -0.7071 0.7071 0.7071 -190.2125 181.0349)" style="fill:#AAE0FE;" cx="123.422" cy="320.124" rx="35.021" ry="35.021"/>
			<path style="fill:#8CCDF5;" d="M153.17,301.645c-10.206-16.43-31.798-21.475-48.228-11.269l36.959,59.496
				C158.331,339.666,163.376,318.074,153.17,301.645z"/>
			<path style="fill:#6593C7;" d="M108.113,295.48c15.569-9.671,35.768-5.64,46.526,8.789c-0.451-0.886-0.934-1.764-1.469-2.624
				c-10.206-16.43-31.798-21.475-48.228-11.269c-16.429,10.206-21.475,31.798-11.269,48.228c0.535,0.86,1.107,1.682,1.702,2.479
				C87.208,325.045,92.544,305.151,108.113,295.48z"/>
			<path style="fill:#4C77AD;" d="M154.639,304.269c-0.221-0.434-0.45-0.866-0.689-1.294c-0.251-0.446-0.507-0.891-0.78-1.33
				c-10.206-16.43-31.798-21.475-48.228-11.269l3.17,5.104C123.682,285.808,143.881,289.84,154.639,304.269z"/>
			<path style="fill:#003672;" d="M153.689,361.476l-6.608,4.105c-1.869,1.161-2.443,3.617-1.282,5.486l28.406,45.728
				c2.294,3.694,7.149,4.828,10.842,2.533c3.694-2.294,4.828-7.149,2.533-10.842l-28.406-45.728
				C158.013,360.889,155.557,360.315,153.689,361.476z"/>
			<path style="fill:#4C77AD;" d="M149.147,367.912c-0.908,0.564-1.187,1.758-0.623,2.666l27.688,44.572
				c0.564,0.908,1.758,1.187,2.666,0.623c0.908-0.564,1.187-1.758,0.623-2.666l-27.688-44.572
				C151.248,367.627,150.055,367.348,149.147,367.912z"/>
		</g>
		<path style="fill:#AAE0FE;" d="M371.169,81.232c-7.632,0-14.544,3.086-19.556,8.076c-2.885-1.405-6.124-2.195-9.549-2.195
			c-6.928,0-13.098,3.23-17.099,8.262c-1.94-0.915-4.1-1.441-6.387-1.441c-8.294,0-15.018,6.724-15.018,15.018h95.331
			C398.889,93.643,386.478,81.232,371.169,81.232z"/>
		<path style="fill:#AAE0FE;" d="M182.025,73.978c-2.492,0-4.801,0.776-6.706,2.094c-3.458-6.387-10.217-10.725-17.989-10.725
			c-11.29,0-20.443,9.153-20.443,20.443h56.95C193.837,79.266,188.548,73.978,182.025,73.978z"/>
		<g>
			<path style="fill:#003672;" d="M108.185,210.14h21.647l7.294,66.967h-6.588l-9.751-54.554c-0.215-0.947-1.056-1.619-2.027-1.619
				l0,0c-1.112,0-2.026,0.875-2.076,1.985l-1.911,54.188h-6.588V210.14z"/>
			<path style="fill:#E0422D;" d="M131.16,170.511h-16.27c-2.069,0-3.788,1.593-3.946,3.656l-2.757,35.974h21.647l5.242-35.087
				C135.432,172.661,133.579,170.511,131.16,170.511z"/>
			<path style="fill:#F8C79F;" d="M119.246,164.223l-0.338,6.945c-0.087,1.796,1.297,3.322,3.093,3.41
				c1.796,0.087,3.322-1.298,3.409-3.093l0.338-6.945L119.246,164.223z"/>
			<path style="fill:#D9A275;" d="M118.978,169.747c1.153-0.137,2.282-0.46,3.339-0.938c1.271-0.574,2.365-1.357,3.336-2.295
				l0.096-1.976l-6.503-0.316L118.978,169.747z"/>
			<g>
				<g>
					<path style="fill:#F8C79F;" d="M113.234,148.82c1.676-2.233,5.296-3.141,8.332-2.506c2.568,0.537,5.671,2.345,6.73,4.438
						c0.857,1.694,0.666,4.136,0.31,6.24c0.173-0.04,0.355-0.064,0.546-0.064c0.818,0.003,1.647,0.444,1.787,1.178
						c0.353,1.858-1.425,3.223-2.852,3.309c-0.195,0.027-0.396,0.024-0.598-0.002c-0.996,2.517-2.753,4.824-5.607,5.88
						c-1.741,0.644-3.899,0.7-5.406-0.227c-1.172-0.72-1.785-1.909-2.135-3.088c-0.299-1.006-0.445-2.046-0.431-3.087
						c0.01-0.758,0.103-1.52-0.007-2.271c-0.13-0.886-0.536-1.722-0.88-2.564C112.063,153.706,111.63,150.956,113.234,148.82z"/>
					<g>
						<path style="fill:#003672;" d="M119.668,153.954c0.634,0.098,1.354,0.413,1.632,0.963c0.146,0.291-0.322,0.549-0.485,0.255
							c-0.241-0.434-0.815-0.592-1.307-0.692c-0.253-0.052-0.517-0.091-0.777-0.095c-0.222-0.003-0.411,0.098-0.624,0.085
							c-0.106-0.007-0.156-0.094-0.114-0.178C118.214,153.853,119.239,153.888,119.668,153.954z"/>
						<path style="fill:#003672;" d="M112.793,154.382c0.386-0.49,1.582-0.695,1.992-0.132c0.121,0.167-0.12,0.383-0.307,0.275
							c-0.482-0.281-0.94-0.119-1.397,0.116C112.909,154.73,112.666,154.543,112.793,154.382z"/>
					</g>
					<path style="fill:#DD675B;" d="M120.212,159.365c0.128-0.089,0.305-0.143,0.458-0.184c0.541-0.145,0.724,0.56,0.227,0.74
						c-0.292,0.106-0.603,0.005-0.786-0.211C120.011,159.592,120.105,159.44,120.212,159.365z"/>
					<path style="fill:#DD675B;" d="M114.31,159.153c0.155-0.009,0.227,0.035,0.333,0.131c0.248,0.223-0.137,0.568-0.385,0.346
						c-0.106-0.096-0.155-0.163-0.146-0.299C114.119,159.23,114.197,159.16,114.31,159.153z"/>
					<path style="fill:#003672;" d="M120.354,157.956c0.707,0,0.708,0.985,0,0.985C119.647,158.941,119.646,157.956,120.354,157.956
						z"/>
					<path style="fill:#003672;" d="M114.942,157.735c0.661,0,0.663,0.922,0,0.922C114.281,158.657,114.28,157.735,114.942,157.735z
						"/>
					<path style="fill:#DD675B;" d="M115.576,160.564c0.711,0.083,0.942-1.161,1.001-1.611c0.043-0.329,0.526-0.415,0.656-0.08
						c0.393,1.018-0.192,2.849-1.657,2.754C114.806,161.577,114.834,160.476,115.576,160.564z"/>
					<path style="fill:#FFFFFF;" d="M120.233,161.111c0.068-0.085,0.185-0.184,0.283-0.127c0.036,0.021,0.055,0.058,0.072,0.094
						c0.363,0.788,0.106,1.772-0.608,2.335c-0.714,0.563-1.835,0.664-2.66,0.24c-0.588-0.302-0.603-0.908,0.091-1.022
						c0.712-0.117,1.369-0.335,1.952-0.728C119.695,161.68,119.991,161.413,120.233,161.111z"/>
					<path style="fill:#003672;" d="M129.011,144.991c-8.942-7.438-13.451,5.495-15.396,6.629c-0.111,0.065-0.226,0.114-0.338,0.175
						c0.818,0.146,1.651,0.222,2.477,0.223c2.546,0.001,5.359-0.566,7.838-1.146c-0.337,3.395,0.988,6.914,3.278,9.443
						c0.562-2.224,1.028-2.651,1.578-2.964c0.938-0.533,1.576-0.232,2.111,0.28C132.411,154.785,135.119,144.179,129.011,144.991z"
						/>
					<path style="fill:#003672;" d="M122.637,140.656c-2.675-0.579-5.571-0.066-7.884,1.397c-3.438,2.175-5.364,6.141-8.617,8.585
						c1.061-0.182,2.122-0.363,3.183-0.545c-1.073,0.535-2.146,1.07-3.219,1.605c3.35,0.545,6.756,0.745,10.146,0.594
						c2.497-0.111,5.027-0.422,7.324-1.408c1.949-0.837,3.858-2.259,4.886-4.156c1.1-2.028-0.715-3.568-2.321-4.608
						C125.069,141.429,123.88,140.925,122.637,140.656z"/>
				</g>
			</g>
			<g>
				<path style="fill:#E0422D;" d="M103.636,194.398c-2.234-0.147-3.374-3.097-3.596-4.733l-2.215-16.774l4.346-0.591l2.968,13.015
					l6.327-12.584l5.408,6.847C116.874,179.578,109.227,194.765,103.636,194.398z"/>
			</g>
			<path style="fill:#F8C79F;" d="M102.171,172.3l-1.096-4.854c-0.197-0.874-0.974-1.495-1.87-1.495h-4.646
				c-0.695,0-1.259,0.564-1.259,1.259v3.471c0,0.566,0.378,1.062,0.923,1.213l3.602,0.997L102.171,172.3z"/>
			<polygon style="fill:#A33021;" points="99.738,163.93 96.821,175.18 93.738,174.097 96.738,163.722 			"/>
			<g>
				<path style="fill:#E0422D;" d="M76.65,150.224v11.795v11.795l23.763-9.678c0.861-0.351,1.424-1.188,1.424-2.118l0,0
					c0-0.93-0.563-1.767-1.424-2.118L76.65,150.224z"/>
				<ellipse style="fill:#A33021;" cx="76.65" cy="162.019" rx="3.526" ry="11.795"/>
			</g>
			<polygon style="fill:#F8C79F;" points="99.509,166.742 95.405,166.742 94.28,171.367 96.155,171.367 97.009,168.534 
				98.821,169.763 			"/>
			<path style="fill:#E0422D;" d="M126.17,171.367l20.13-3.479l8.75-20.75l4.25,1.141l-6.371,22.019
				c-0.471,1.629-1.691,2.936-3.284,3.519l-20.72,7.574L126.17,171.367z"/>
			<path style="fill:#F8C79F;" d="M162.28,138.972c-1.259-1.669-3.983,2.378-5.705,5.352c-2.363-7.176-1.525,2.814-1.525,2.814
				l4.25,1.141C159.3,148.28,164.196,141.513,162.28,138.972z"/>
			<path style="fill:#E0422D;" d="M114.774,277.108v5.725c0,0-33.281,14.911-6.588-5.725H114.774z"/>
			<path style="fill:#E0422D;" d="M130.538,277.108l0.801,5.038c0,0,28.261,13.425,5.787-5.038H130.538z"/>
		</g>
		<g>
			<rect x="236.93" y="117.951" style="fill:#FF9A30;" width="31.763" height="9.319"/>
			<path style="fill:#E0422D;" d="M280.948,96.641l-0.755-1.647c-0.244-0.563-0.534-1.057-0.815-1.567
				c-0.286-0.5-0.554-1.035-0.866-1.492l-0.914-1.413c-0.313-0.455-0.64-0.884-0.961-1.326c-0.318-0.448-0.652-0.863-0.99-1.269
				c-0.339-0.404-0.666-0.836-1.016-1.215l-1.042-1.158c-0.71-0.737-1.418-1.479-2.154-2.157c-0.364-0.349-0.73-0.692-1.104-1.016
				c-0.373-0.328-0.741-0.666-1.122-0.976c-0.755-0.637-1.52-1.25-2.304-1.837c-0.389-0.296-0.788-0.584-1.19-0.868l-0.615-0.424
				l-0.655-0.43c-1.978-1.302-4.433-0.376-5.488,2.064c-1.055,2.441-0.307,5.475,1.671,6.777l0.117,0.077l0.462,0.304l0.489,0.338
				c0.329,0.234,0.659,0.47,0.987,0.721c0.658,0.492,1.307,1.013,1.944,1.551c0.324,0.261,0.631,0.547,0.945,0.822
				c0.316,0.273,0.621,0.559,0.923,0.85c0.617,0.566,1.192,1.176,1.774,1.775l0.838,0.931c0.285,0.305,0.531,0.64,0.8,0.958
				c0.267,0.319,0.528,0.641,0.764,0.979c0.241,0.334,0.494,0.661,0.727,0.999l0.663,1.028c0.151,0.213,0.273,0.438,0.394,0.662
				c-0.17,0.255-0.347,0.508-0.531,0.76c-0.281,0.38-0.537,0.776-0.846,1.146l-0.896,1.13l-0.948,1.104
				c-0.311,0.373-0.647,0.727-0.978,1.087c-0.333,0.357-0.658,0.724-1.005,1.07c-0.679,0.707-1.375,1.398-2.084,2.078
				c-0.35,0.346-0.716,0.672-1.073,1.009c-0.358,0.338-0.723,0.664-1.089,0.991c-0.729,0.658-1.473,1.298-2.221,1.924l-1.128,0.93
				l-1.115,0.883l-0.097,0.076c-1.03,0.813-1.443,2.459-0.92,3.871c0.573,1.545,2.053,2.223,3.305,1.516l1.341-0.758l1.301-0.773
				c0.864-0.523,1.721-1.058,2.571-1.619c0.426-0.278,0.852-0.556,1.273-0.848c0.421-0.292,0.848-0.571,1.266-0.875
				c0.841-0.594,1.677-1.209,2.506-1.85c0.418-0.309,0.827-0.652,1.239-0.983c0.412-0.334,0.826-0.661,1.231-1.023l1.222-1.067
				l1.205-1.141c0.406-0.368,0.794-0.805,1.19-1.212c0.396-0.409,0.791-0.826,1.173-1.297c0.383-0.468,0.778-0.888,1.151-1.404
				l1.118-1.547l0,0l0.021-0.031C281.552,100.381,281.726,98.338,280.948,96.641z"/>
			<path style="fill:#A33021;" d="M261.207,87.068l0.489,0.338c0.329,0.234,0.659,0.47,0.987,0.721
				c0.658,0.492,1.307,1.013,1.944,1.551c0.324,0.261,0.631,0.547,0.945,0.822c0.316,0.273,0.621,0.559,0.923,0.85
				c0.617,0.566,1.192,1.176,1.774,1.775l0.838,0.931c0.237,0.253,0.447,0.525,0.665,0.792c-1.058-6.039-5.345-13.497-5.345-13.497
				c-1.945-0.192-2.927,2.785-3.421,5.586L261.207,87.068z"/>
			<path style="fill:#E0422D;" d="M224.619,96.641l0.755-1.647c0.244-0.563,0.534-1.057,0.815-1.567
				c0.286-0.5,0.554-1.035,0.866-1.492l0.914-1.413c0.313-0.455,0.64-0.884,0.961-1.326c0.318-0.448,0.652-0.863,0.99-1.269
				c0.339-0.404,0.666-0.836,1.016-1.215l1.042-1.158c0.71-0.737,1.419-1.479,2.154-2.157c0.364-0.349,0.73-0.692,1.104-1.016
				c0.373-0.328,0.741-0.666,1.122-0.976c0.755-0.637,1.52-1.25,2.304-1.837c0.389-0.296,0.788-0.584,1.19-0.868l0.614-0.424
				l0.655-0.43c1.978-1.302,4.433-0.376,5.488,2.064c1.055,2.441,0.307,5.475-1.671,6.777l-0.117,0.077l-0.462,0.304l-0.489,0.338
				c-0.329,0.234-0.659,0.47-0.987,0.721c-0.658,0.492-1.307,1.013-1.944,1.551c-0.324,0.261-0.631,0.547-0.945,0.822
				c-0.316,0.273-0.621,0.559-0.923,0.85c-0.617,0.566-1.192,1.176-1.774,1.775l-0.838,0.931c-0.285,0.305-0.531,0.64-0.8,0.958
				c-0.267,0.319-0.528,0.641-0.764,0.979c-0.241,0.334-0.494,0.661-0.727,0.999l-0.663,1.028c-0.151,0.213-0.273,0.438-0.394,0.662
				c0.17,0.255,0.347,0.508,0.531,0.76c0.281,0.38,0.537,0.776,0.846,1.146l0.896,1.13l0.948,1.104
				c0.312,0.373,0.647,0.727,0.978,1.087c0.333,0.357,0.658,0.724,1.005,1.07c0.679,0.707,1.375,1.398,2.085,2.078
				c0.35,0.346,0.716,0.672,1.073,1.009c0.357,0.338,0.723,0.664,1.089,0.991c0.729,0.658,1.472,1.298,2.221,1.924l1.128,0.93
				l1.115,0.883l0.097,0.076c1.03,0.813,1.443,2.459,0.92,3.871c-0.573,1.545-2.053,2.223-3.305,1.516l-1.341-0.758l-1.301-0.773
				c-0.864-0.523-1.721-1.058-2.571-1.619c-0.426-0.278-0.852-0.556-1.273-0.848c-0.421-0.292-0.848-0.571-1.266-0.875
				c-0.841-0.594-1.677-1.209-2.506-1.85c-0.418-0.309-0.827-0.652-1.239-0.983c-0.412-0.334-0.826-0.661-1.231-1.023l-1.222-1.067
				l-1.205-1.141c-0.406-0.368-0.794-0.805-1.19-1.212c-0.396-0.409-0.791-0.826-1.173-1.297c-0.383-0.468-0.778-0.888-1.151-1.404
				l-1.118-1.547l0,0l-0.021-0.031C224.016,100.381,223.841,98.338,224.619,96.641z"/>
			<path style="fill:#A33021;" d="M244.36,87.068l-0.489,0.338c-0.329,0.234-0.659,0.47-0.987,0.721
				c-0.658,0.492-1.307,1.013-1.944,1.551c-0.324,0.261-0.631,0.547-0.945,0.822c-0.316,0.273-0.621,0.559-0.923,0.85
				c-0.617,0.566-1.192,1.176-1.774,1.775l-0.838,0.931c-0.236,0.253-0.447,0.525-0.665,0.792
				c1.058-6.039,5.345-13.497,5.345-13.497c1.945-0.192,2.927,2.785,3.421,5.586L244.36,87.068z"/>
			<path style="fill:#E0422D;" d="M262.098,77.219h-18.947c-1.474,0-2.668,1.195-2.668,2.668v33.119h24.284V79.887
				C264.766,78.414,263.572,77.219,262.098,77.219z"/>
			<path style="fill:#F8C79F;" d="M249.34,72.069v5.876c0,1.879,1.523,3.402,3.402,3.402c1.879,0,3.403-1.523,3.403-3.402v-5.876
				H249.34z"/>
			<path style="fill:#D9A275;" d="M249.34,74.317c0.509,0.439,1.051,0.842,1.624,1.194c0.998,0.612,2.081,1.084,3.212,1.388
				c0.635,0.171,1.317,0.277,1.969,0.228v-5.058h-6.805V74.317z"/>
			<g>
				<path style="fill:#002854;" d="M271.071,93.427c0-2.493-2.021-4.513-4.513-4.513h-26.912c-2.492,0-4.513,2.021-4.513,4.513
					l0.194,22.23h35.938L271.071,93.427z"/>
				<circle style="fill:#FFFFFF;" cx="253.102" cy="101.703" r="3.491"/>
			</g>
			<rect x="234.322" y="115.658" style="fill:#002854;" width="38.128" height="4.494"/>
			<path style="fill:#FFBB45;" d="M275.24,120.495c1.231,2.294,0.465,5.063-1.601,6.439c-0.363,0.242-0.769,0.41-1.184,0.546
				l-27.787,9.108l-2.721-5.965l26.754-12.203C271.091,117.331,273.999,118.182,275.24,120.495z"/>
			<polygon style="fill:#FF9A30;" points="256.544,123.966 241.948,130.624 244.669,136.589 268.692,128.714 			"/>
			<path style="fill:#FFBB45;" d="M229.782,120.495c-1.231,2.294-0.465,5.063,1.601,6.439c0.363,0.242,0.769,0.41,1.184,0.546
				l27.787,9.108l2.721-5.965L236.32,118.42C233.931,117.331,231.024,118.182,229.782,120.495z"/>
			<path style="fill:#E0422D;" d="M263.074,130.624h12.758c0,0,0.169,5.965-6.463,5.965c-6.632,0-9.015,0-9.015,0L263.074,130.624z"
				/>
			<path style="fill:#E0422D;" d="M241.948,130.624h-12.758c0,0-0.169,5.965,6.463,5.965s9.015,0,9.015,0L241.948,130.624z"/>
			<g>
				<path style="fill:#003672;" d="M261.862,61.662c2.427,0.27,4.694-2.27,4.387-4.916c-0.181-1.561-1.11-2.96-2.281-3.905
					c-1.171-0.945-2.569-1.484-3.971-1.867c-5.934-1.625-12.368-0.597-17.493,2.795c-0.032,3.245-0.218,6.752,0.631,9.891
					c0.849,3.14,2.72,6.148,5.48,7.447c2.697,1.269,5.895,0.688,8.264-1.067C259.249,68.285,260.984,64.656,261.862,61.662z"/>
				<g>
					<path style="fill:#F8C79F;" d="M244.003,59.709c1.754,3.111,0.514,7.13,1.744,10.484c1.005,2.742,3.759,4.749,6.676,4.867
						c2.918,0.118,5.824-1.659,7.048-4.311c0.924-2.002,0.914-4.289,0.953-6.494c0.039-2.205,0.178-4.518,1.339-6.393
						c0.373-0.603-0.368-1.498-0.902-1.964c-0.534-0.466-1.204-0.746-1.875-0.975c-3.811-1.297-8.099-1.131-11.798,0.456
						c-0.867,0.372-1.715,0.828-2.379,1.498C244.145,57.547,243.54,58.887,244.003,59.709z"/>
				</g>
				<g>
					<path style="fill:#003672;" d="M249.34,64.505c-0.707,0-0.708,0.985,0,0.985C250.047,65.49,250.048,64.505,249.34,64.505z"/>
				</g>
				<g>
					<path style="fill:#003672;" d="M256.145,64.505c-0.707,0-0.708,0.985,0,0.985C256.852,65.49,256.853,64.505,256.145,64.505z"/>
				</g>
				<g>
					<ellipse style="fill:#DD675B;" cx="248.152" cy="66.906" rx="1" ry="0.615"/>
				</g>
				<g>
					<ellipse style="fill:#DD675B;" cx="257.308" cy="66.906" rx="1" ry="0.615"/>
				</g>
				<g>
					<path style="fill:#DD675B;" d="M253.804,68.39c-0.711,0.084-0.942-1.161-1.001-1.611c-0.043-0.329-0.526-0.415-0.656-0.08
						c-0.393,1.018,0.192,2.849,1.657,2.754C254.575,69.403,254.546,68.302,253.804,68.39z"/>
				</g>
				<g>
					<g>
						<path style="fill:#DD675B;" d="M251.738,71.607c-0.478,0-0.957-0.14-1.357-0.401c-0.504-0.329-0.881-0.852-1.033-1.435
							c-0.035-0.134,0.045-0.271,0.178-0.305c0.133-0.038,0.27,0.044,0.305,0.178c0.122,0.465,0.422,0.881,0.823,1.144
							c0.402,0.264,0.904,0.374,1.378,0.297c0.13-0.019,0.264,0.071,0.286,0.209c0.021,0.136-0.072,0.264-0.208,0.286
							C251.988,71.598,251.863,71.607,251.738,71.607z"/>
					</g>
				</g>
				<g>
					<path style="fill:#003672;" d="M247.308,62.614c-0.046,0-0.093-0.013-0.135-0.04c-0.116-0.075-0.15-0.229-0.075-0.346
						c0.012-0.019,1.251-1.891,3.366-1.357c0.134,0.034,0.215,0.17,0.181,0.304c-0.034,0.133-0.169,0.215-0.304,0.181
						c-1.772-0.448-2.811,1.126-2.822,1.143C247.471,62.574,247.39,62.614,247.308,62.614z"/>
				</g>
				<g>
					<path style="fill:#003672;" d="M258.223,62.614c-0.082,0-0.163-0.04-0.21-0.114c-0.043-0.066-1.058-1.591-2.822-1.144
						c-0.136,0.034-0.27-0.047-0.304-0.181c-0.034-0.134,0.047-0.27,0.181-0.304c2.119-0.535,3.354,1.338,3.366,1.357
						c0.074,0.116,0.041,0.27-0.075,0.345C258.316,62.601,258.269,62.614,258.223,62.614z"/>
				</g>
				<path style="fill:#F8C79F;" d="M260.481,63.539c0.296-0.337,0.822-0.519,1.205-0.286c0.368,0.224,0.462,0.716,0.453,1.147
					c-0.022,1.081-0.473,2.147-1.232,2.916c-0.178,0.181-0.409,0.357-0.659,0.317c-0.334-0.053-0.489-0.443-0.54-0.778
					C259.555,65.853,259.783,64.335,260.481,63.539z"/>
				<path style="fill:#F8C79F;" d="M244.987,63.539c-0.296-0.337-0.822-0.519-1.205-0.286c-0.368,0.224-0.462,0.716-0.453,1.147
					c0.022,1.081,0.473,2.147,1.232,2.916c0.178,0.181,0.409,0.357,0.659,0.317c0.335-0.053,0.489-0.443,0.54-0.778
					C245.913,65.853,245.685,64.335,244.987,63.539z"/>
				<path style="fill:#003672;" d="M244.706,65.1c1.44-2.26,2.358-4.851,2.662-7.514c4.02,2.329,8.64,3.55,13.279,3.304
					c0.669-0.035,2.787-4.292,2-5.026c-2.244-2.091-5.441-2.793-8.497-3.049c-2.202-0.185-4.471-0.175-6.557,0.555
					c-2.086,0.729-3.98,2.279-4.66,4.382c-0.567,1.752-0.249,3.667,0.276,5.432C243.446,63.98,243.899,64.897,244.706,65.1z"/>
				<path style="fill:#003672;" d="M259.111,60.104c-0.064,1.58,0.282,3.174,0.996,4.585c0.893-1.018,1.559-2.237,1.877-3.553
					c0.106-0.439,0.172-0.923-0.032-1.326c-0.235-0.463-0.799-0.703-1.314-0.64C260.122,59.233,259.429,59.694,259.111,60.104z"/>
			</g>
		</g>
		<g>
			<path style="fill:#003672;" d="M239.06,343.309l16.686,71.543l-4.024,1.203l-23.243-55.784
				C228.479,360.27,229.584,338.677,239.06,343.309z"/>
			<polygon style="fill:#002854;" points="231.742,368.102 238.649,384.677 235.839,348.695 			"/>
			<path style="fill:#003672;" d="M225.276,343.255c0,0-5.364,5.587-4.298,23.029c1.066,17.442,4.862,51.57,4.862,51.57h5.421
				l4.859-73.407C236.12,344.447,227.306,339.673,225.276,343.255z"/>
			<path style="fill:#E0422D;" d="M237.484,317.043c3.505,8.542,1.466,17.342,1.576,26.266c-5.674,1.464-8.201,1.589-13.784-0.053
				c0.36-5.649-0.489-11.357-2.305-16.851C225.805,321.944,231.031,318.319,237.484,317.043z"/>
			<g>
				<path style="fill:#F8C79F;" d="M237.323,324.651c3.322,2.49,4.977,3.523,9.281,5.142c6.202-2.32,14.963-8.787,15.675-11.398
					c0.202-0.741,0.305-1.535-0.132-2.227c-0.65-1.029-2.554-1.579-4.069-1.175c-1.514,0.404-2.393,1.695-1.877,2.76
					c0.343,0.706,1.27,1.583,0.73,2.228c-1.969,2.348-7.527,3.524-10.31,5.438c-3.021-1.392-3.519-2.126-5.793-4.083
					c-0.263-0.227-0.592-0.48-1.011-0.459c-0.235,0.011-0.441,0.11-0.624,0.212C237.713,321.916,237.167,323.339,237.323,324.651z"
					/>
				<path style="fill:#E0422D;" d="M231.882,313.157c2.126,0.269,5.21,1.905,10.056,8.564c-1.268,1.286-2.714,2.665-3.981,3.951
					c-2.434-1.509-4.473-3.504-6.131-5.702c-0.777-1.03-1.472-2.176-1.522-3.419C230.255,315.308,230.517,312.984,231.882,313.157z"
					/>
				<polygon style="fill:#A33021;" points="240.115,323.774 233.776,318.952 237.73,325.535 				"/>
			</g>
			<polygon style="fill:#E0422D;" points="231.882,313.157 227.645,311.871 224.117,312.781 223.156,326.206 228.746,331.014 
				238.654,327.324 			"/>
			<path style="fill:#A33021;" d="M228.109,317.043c2.655,2.686,4.881,6.793,5.667,10.674c-1.352,0.544-3.696,1.991-5.146,2.263
				c-0.175,0.033-0.374,0.059-0.519-0.035c-0.105-0.068-0.155-0.184-0.197-0.294c-0.748-1.971-0.545-4.128-0.126-6.176
				C228.206,321.427,228.034,319.124,228.109,317.043z"/>
			<g>
				<path style="fill:#F8C79F;" d="M225.933,307.426c0.601,1.69,0.6,3.435,0.671,5.531c0.954,1.852,3.978,3.596,5.278,3.594
					c-1.074-2.436-0.336-7.321,0-9.372C229.627,307.154,228.193,306.945,225.933,307.426z"/>
				<path style="fill:#D9A275;" d="M225.99,307.609c0.175,0.53,0.295,1.067,0.378,1.619c1.209,1.768,2.937,3.204,4.962,4.16
					c-0.049-1.874,0.202-3.928,0.417-5.352c-0.658-0.325-1.309-0.63-1.992-0.912c-1.199-0.03-2.303-0.008-3.726,0.285
					C226.017,307.474,226.003,307.542,225.99,307.609z"/>
			</g>
			<g>
				<path style="fill:#003672;" d="M220.596,287.877c-1.788,0.082-3.4,1.189-4.222,2.616c-0.821,1.427-0.926,3.122-0.587,4.699
					c0.339,1.577,1.092,3.057,1.921,4.48c0.5,0.86,1.047,1.829,0.723,2.755c-0.24,0.685-0.95,1.193-1.732,1.343
					c-0.782,0.15-1.616-0.03-2.301-0.401c0.111,0.666,0.619,1.242,1.245,1.614c0.627,0.372,1.364,0.563,2.101,0.696
					c1.333,0.241,2.828,0.277,3.933-0.433c0.965-0.621,1.432-1.68,1.787-2.697c0.843-2.414,1.328-4.927,1.448-7.454
					c0.086-1.818,0.419-4.246-0.903-5.78C223.207,288.384,221.916,287.816,220.596,287.877z"/>
				<path style="fill:#002854;" d="M224.912,295.095c0.061-1.286,0.234-2.871-0.131-4.235c-0.292-0.207-0.625-0.361-0.964-0.417
					c-2.532,1.089-4.232,3.577-4.165,6.094c0.033,1.234,0.45,2.429,0.786,3.626c0.337,1.197,0.596,2.451,0.311,3.659
					c-0.178,0.757-0.617,1.494-1.25,2.007c0.784-0.019,1.544-0.176,2.176-0.582c0.965-0.621,1.432-1.681,1.787-2.697
					C224.307,300.135,224.792,297.621,224.912,295.095z"/>
				<path style="fill:#003672;" d="M238.866,307.722c0.037-0.114-0.723-1.02-0.812-1.182c-0.238-0.435-0.427-0.891-0.568-1.359
					c-0.282-0.936-0.368-1.921-0.249-2.885c0.053-0.43,0.42-2.405,1.181-1.313c0.587,0.844,0.765,2.154,0.853,3.123
					C239.38,305.32,239.248,306.553,238.866,307.722z"/>
				<path style="fill:#E0422D;" d="M222.74,290.784c-0.75,0.745-1.12,1.762-1.12,2.766c0,0.46,0.094,0.957,0.463,1.276
					c0.365,0.315,0.935,0.383,1.423,0.259c0.488-0.123,0.903-0.412,1.261-0.733c0.634-0.569,1.124-1.259,1.483-1.996
					c0.215-0.443,0.387-0.919,0.35-1.401c-0.037-0.481-0.386-1.148-0.975-1.245c-0.643-0.106-1.413,0.13-1.963,0.412
					C223.318,290.296,223.005,290.521,222.74,290.784z"/>
				<path style="fill:#003672;" d="M221.708,301.281c0.923,2.616,2.842,4.877,5.088,6.74c0.315-1.103,0.233-2.262,0.131-3.397
					c-0.138-1.531-0.31-3.059-0.514-4.584c-0.176-1.311-0.379-2.63-0.876-3.873c-0.367-0.917-1.792-3.268-3.221-2.178
					c-0.596,0.454-0.79,1.432-0.943,2.083c-0.192,0.819-0.258,1.66-0.212,2.495C221.212,299.488,221.398,300.402,221.708,301.281z"
					/>
				<g>
					<path style="fill:#F8C79F;" d="M238.531,293.046c-1.611-2.146-5.09-3.019-8.008-2.409c-2.467,0.516-5.45,2.253-6.468,4.265
						c-0.824,1.628-0.64,3.975-0.298,5.997c-0.167-0.039-0.341-0.062-0.525-0.061c-0.786,0.003-1.495,0.449-1.718,1.133
						c-0.054,0.165-0.073,0.33-0.075,0.493c-0.033,0.121-0.056,0.246-0.057,0.379c-0.006,1.196,1.5,2.226,2.872,2.309
						c0.188,0.026,0.38,0.023,0.575-0.002c0.957,2.419,2.646,4.637,5.389,5.651c1.673,0.619,3.747,0.672,5.196-0.218
						c1.126-0.692,1.715-1.834,2.052-2.968c0.288-0.967,0.427-1.966,0.415-2.967c-0.009-0.728-0.099-1.461,0.007-2.183
						c0.124-0.852,0.515-1.654,0.846-2.465C239.657,297.743,240.073,295.1,238.531,293.046z"/>
					<g>
						<path style="fill:#003672;" d="M232.347,297.982c-0.609,0.094-1.302,0.397-1.568,0.926c-0.141,0.279,0.31,0.527,0.467,0.245
							c0.232-0.417,0.784-0.569,1.257-0.665c0.243-0.05,0.497-0.087,0.747-0.091c0.213-0.003,0.395,0.094,0.6,0.081
							c0.102-0.006,0.15-0.09,0.109-0.171C233.745,297.884,232.76,297.918,232.347,297.982z"/>
						<path style="fill:#003672;" d="M238.955,298.393c-0.371-0.471-1.521-0.668-1.914-0.127c-0.117,0.16,0.116,0.368,0.295,0.264
							c0.463-0.27,0.904-0.114,1.343,0.111C238.844,298.727,239.077,298.547,238.955,298.393z"/>
					</g>
					<path style="fill:#DD675B;" d="M231.824,303.182c-0.123-0.085-0.293-0.137-0.44-0.177c-0.52-0.139-0.696,0.538-0.218,0.711
						c0.281,0.102,0.579,0.005,0.756-0.203C232.017,303.4,231.928,303.253,231.824,303.182z"/>
					<path style="fill:#DD675B;" d="M237.497,302.978c-0.149-0.008-0.218,0.034-0.32,0.126c-0.239,0.214,0.132,0.546,0.37,0.332
						c0.102-0.092,0.149-0.156,0.14-0.287C237.68,303.052,237.605,302.984,237.497,302.978z"/>
					<path style="fill:#003672;" d="M231.688,301.827c-0.679,0-0.68,0.947,0,0.947C232.367,302.774,232.368,301.827,231.688,301.827
						z"/>
					<path style="fill:#003672;" d="M236.889,301.615c-0.636,0-0.637,0.886,0,0.886
						C237.524,302.501,237.525,301.615,236.889,301.615z"/>
					<path style="fill:#DD675B;" d="M236.28,304.333c-0.683,0.08-0.906-1.116-0.962-1.548c-0.042-0.316-0.506-0.398-0.63-0.077
						c-0.378,0.978,0.184,2.738,1.593,2.647C237.02,305.308,236.993,304.25,236.28,304.333z"/>
					<path style="fill:#FFFFFF;" d="M231.804,304.859c-0.066-0.082-0.178-0.177-0.272-0.122c-0.034,0.02-0.053,0.056-0.069,0.09
						c-0.348,0.758-0.102,1.703,0.584,2.244c0.687,0.541,1.763,0.638,2.556,0.231c0.565-0.29,0.58-0.873-0.088-0.982
						c-0.685-0.112-1.316-0.322-1.876-0.699C232.321,305.406,232.037,305.15,231.804,304.859z"/>
				</g>
				<path style="fill:#003672;" d="M223.796,300.949c-0.038,1.974,0.924,5.298,2.227,6.889c1.081-1.28,0.881-4.412-0.052-5.783
					c2.36-0.859,4.682-1.854,6.713-3.232c2.031-1.378,3.77-3.167,4.7-5.294c1.007,1.334,1.676,2.904,1.975,4.492
					c3.236-2.292,2.597-8.784-2.26-8.02c-3.872-3.26-8.48-2.174-10.98-0.704c-2.499,1.47-4.254,3.928-4.669,6.582
					C221.151,297.8,222.014,299.852,223.796,300.949z"/>
			</g>
			<path style="fill:#6593C7;" d="M218.249,348.695c0,0,6.598,3.139,13.012,2.168c0.763,7.064-0.145,12.803-2.782,12.803
				c-2.637,0-10.76-1.325-10.76-1.325S212.244,361.763,218.249,348.695z"/>
			<g>
				<path style="fill:#6593C7;" d="M230.993,354.073l-0.722-0.062c0.03-0.341,2.997-34.185-3.466-40.092
					c-0.732-0.669-1.537-0.926-2.46-0.789c-3.5,0.522-4.205,13.137-4.826,24.267c-0.333,5.962-0.647,11.593-1.345,15.643
					l-0.715-0.117c0.691-4.011,1.004-9.623,1.336-15.565c0.698-12.506,1.357-24.318,5.44-24.927
					c1.135-0.171,2.172,0.156,3.065,0.972C234.019,319.544,231.12,352.665,230.993,354.073z"/>
			</g>
			<g>
				<path style="fill:#F8C79F;" d="M224.176,323.389c0.182,3.671,1.338,7.902,3.223,11.166c5.745,0.032,14.477-3.521,20.609-13.638
					c0.829,0.612,2.628,1.441,3.631,1.097c1.003-0.344,1.783-1.135,2.118-2.05c0.263-0.718,0.255-1.537-0.148-2.201
					c-0.404-0.663-1.241-1.129-2.079-1.045c0.837-0.244,1.591-0.615,2.428-0.858c-0.715-1.26-2.745-1.476-4.153-0.839
					c-1.407,0.637-2.26,1.918-3.271,3.003c-4.714,5.055-8.366,6.425-15.925,10.263c-0.918-3.033-1.396-5.793-1.578-8.84
					C227.365,319.035,225.217,322.152,224.176,323.389z"/>
				<path style="fill:#E0422D;" d="M226.941,314.098c-0.627-0.815-1.724-1.418-2.823-1.317c-1.515,0.138-2.404,1.599-2.761,2.927
					c-0.676,2.515-0.402,5.175,0.345,7.673c0.747,2.498,1.951,4.865,3.154,7.216c2.09-1.399,4.432-2.506,6.92-3.208
					C231.14,325.197,230.183,318.315,226.941,314.098z"/>
			</g>
			<g>
				<path style="fill:#003672;" d="M277.551,304.906h-19.56c-0.299,0-0.567,0.183-0.676,0.461l-5.308,13.51
					c-0.187,0.477,0.164,0.992,0.676,0.992h19.56c0.299,0,0.567-0.183,0.676-0.461l5.308-13.51
					C278.415,305.421,278.063,304.906,277.551,304.906z"/>
				<path style="fill:#003672;" d="M242.842,317.645h29.401v2.224h-29.401c-0.614,0-1.112-0.498-1.112-1.112l0,0
					C241.73,318.143,242.228,317.645,242.842,317.645z"/>
				<path style="fill:#FFEDCC;" d="M269.217,311.259h-5.888c-0.121,0-0.23,0.076-0.27,0.19l-0.469,1.315
					c-0.067,0.187,0.072,0.383,0.27,0.383h5.888c0.121,0,0.229-0.076,0.27-0.19l0.469-1.315
					C269.554,311.456,269.416,311.259,269.217,311.259z"/>
			</g>
			<path style="fill:#F8C79F;" d="M225.84,417.855v5.565c0,0.749,0.677,1.355,1.512,1.355h3.967c1.178,0,2.017-1.026,1.662-2.034
				l-1.721-4.887H225.84z"/>
			<path style="fill:#F8C79F;" d="M251.722,416.055l1.09,5.261h14.281c1.359,0,1.727-1.679,0.468-2.139l-11.815-4.324
				L251.722,416.055z"/>
			<path style="fill:#E0422D;" d="M252.812,421.315h14.281c1.359,0,1.727-1.679,0.468-2.139l-5.435-1.989
				c-1.38,2.263-6.818,1.678-9.937,1.127L252.812,421.315z"/>
			<path style="fill:#E0422D;" d="M231.319,424.776c1.178,0,2.017-1.026,1.662-2.034l-0.553-1.57
				c-3.296,0.984-5.383,0.59-6.589,0.045v2.204c0,0.749,0.677,1.355,1.512,1.355H231.319z"/>
			<path style="fill:#FFBB45;" d="M220.827,355.279c-0.262,0.328-0.32,0.776-0.296,1.195c0.019,0.331,0.107,0.695,0.382,0.881
				c0.178,0.12,0.402,0.143,0.616,0.16c0.534,0.042,1.069,0.07,1.605,0.082c0.272,0.007,0.565,0.003,0.788-0.153
				c0.294-0.206,0.368-0.604,0.419-0.96c0.041-0.291,0.078-0.605-0.063-0.863c-0.185-0.338-0.611-0.46-0.996-0.48
				c-0.482-0.026-0.861-0.08-1.321-0.194C221.559,354.848,221.096,354.943,220.827,355.279z"/>
		</g>
	</g>
</g>
</svg>
